<svg width="21" height="21" fill="currentColor" xmlns="http://www.w3.org/2000/svg"><rect id="backgroundrect" width="100%" height="100%" x="0" y="0" fill="none" stroke="none" style="" class=""/><g class="currentLayer" style=""><title>Layer 1</title><path fill-rule="evenodd" d="M12.13599967956543,5.958812475204468 A1.5,1.5 0 0 1 14,7.412812232971191 V8.6328125 h0.5 A1.5,1.5 0 0 1 16,10.1328125 v9 a1.5,1.5 0 0 1 -1.5,1.5 h-13 A1.5,1.5 0 0 1 0,19.1328125 v-9 a1.5,1.5 0 0 1 1.4320000410079956,-1.4989999532699585 L12.13599967956543,5.958812475204468 zM5.561999797821045,8.6328125 H13 V7.412812232971191 a0.5,0.5 0 0 0 -0.6209999918937683,-0.48399999737739563 L5.561999797821045,8.6328125 zM1.5,9.6328125 a0.5,0.5 0 0 0 -0.5,0.5 v9 a0.5,0.5 0 0 0 0.5,0.5 h13 a0.5,0.5 0 0 0 0.5,-0.5 v-9 a0.5,0.5 0 0 0 -0.5,-0.5 h-13 z" id="svg_1" class="" fill="#9CA2A6" fill-opacity="1"/><path fill-rule="evenodd" d="M21.22134780883789,4.854159832000732 a0.5,0.5 0 0 0 0,-0.7080000042915344 l-4,-4 a0.5,0.5 0 0 0 -0.7080000042915344,0.7080000042915344 L19.66034698486328,4.000159740447998 H9.86734676361084 A2.5,2.5 0 0 0 7.36734676361084,6.500159740447998 v8 a0.5,0.5 0 0 0 1,0 v-8 A1.5,1.5 0 0 1 9.86734676361084,5.000159740447998 h9.793000221252441 l-3.1470000743865967,3.1459999084472656 a0.5,0.5 0 0 0 0.7080000042915344,0.7080000042915344 l4,-4 z" id="svg_2" class="" fill="#9CA2A6" fill-opacity="1"/></g></svg>