<svg width="17" height="17" fill="currentColor" xmlns="http://www.w3.org/2000/svg"><rect id="backgroundrect" width="100%" height="100%" x="0" y="0" fill="none" stroke="none" style="" class=""/><g class="currentLayer" style=""><title>Layer 1</title><path fill-rule="evenodd" d="M13.50318717956543,2.7791249752044678 A1.5,1.5 0 0 1 15.3671875,4.233124732971191 V5.453125 h0.5 A1.5,1.5 0 0 1 17.3671875,6.953125 v9 a1.5,1.5 0 0 1 -1.5,1.5 h-13 A1.5,1.5 0 0 1 1.3671875,15.953125 v-9 a1.5,1.5 0 0 1 1.4320000410079956,-1.4989999532699585 L13.50318717956543,2.7791249752044678 zM6.929187297821045,5.453125 H14.3671875 V4.233124732971191 a0.5,0.5 0 0 0 -0.6209999918937683,-0.48399999737739563 L6.929187297821045,5.453125 zM2.8671875,6.453125 a0.5,0.5 0 0 0 -0.5,0.5 v9 a0.5,0.5 0 0 0 0.5,0.5 h13 a0.5,0.5 0 0 0 0.5,-0.5 v-9 a0.5,0.5 0 0 0 -0.5,-0.5 h-13 z" id="svg_1" class="selected" fill="#E72076" fill-opacity="1"/><path fill-rule="evenodd" d="M13.853841781616211,4.858145713806152 a0.5,0.5 0 0 0 0,-0.7080000042915344 l-4,-4 a0.5,0.5 0 0 0 -0.7080000042915344,0.7080000042915344 L12.292840957641602,4.004145622253418 H2.49984073638916 A2.5,2.5 0 0 0 -0.00015938282012939453,6.504145622253418 v8 a0.5,0.5 0 0 0 1,0 v-8 A1.5,1.5 0 0 1 2.49984073638916,5.004145622253418 h9.793000221252441 l-3.1470000743865967,3.1459999084472656 a0.5,0.5 0 0 0 0.7080000042915344,0.7080000042915344 l4,-4 z" id="svg_2" class="" transform="rotate(90, 6.99984, 7.50415)" fill="#E72076" fill-opacity="1"/></g></svg>